#!OML:ASF H:\Pregnant\Project 1\Capture day 1\Session 1\femalepreg.ASF
:FULLY-SPECIFIED
:DEGREES
905
root 11.0574 7.75322 22.2495 -104.071 -2.01777 176.8
lowerback 9.48432 0.860069 -1.53739
upperback -2.39109 0.610807 -3.59482
thorax -7.84622 0.242617 -3.03551
lowerneck -28.1874 1.81863 2.69122
upperneck 37.8137 -2.93487 4.08243
head 19.4451 -0.540888 0.651548
rclavicle -1.11319e-014 -1.5704e-014
rhumerus 41.3646 -3.06171 -73.4395
rradius 31.949
rwrist 7.90853
rhand -61.3664 348.436
rfingers 7.12502
rthumb -33.4517 -38.468
lclavicle -1.11319e-014 -1.5704e-014
lhumerus 30.2934 -21.7726 65.2499
lradius 33.3283
lwrist 13.9059
lhand -50.0583 -609.562
lfingers 7.12502
lthumb -22.6451 -81.7468
rfemur -82.92 8.3704 14.7715
rtibia 103.975
rfoot 45.6158 -7.46463
rtoes 56.8126
lfemur -78.0855 -13.7794 -5.65038
ltibia 88.8055
lfoot -308.233 1.6149
ltoes 14.7673
906
root 11.0453 7.76076 22.2415 -104.197 -1.93858 176.674
lowerback 9.69828 0.835394 -1.65132
upperback -2.36434 0.56268 -3.52138
thorax -7.9448 0.226574 -2.88987
lowerneck -28.1814 1.81325 2.71489
upperneck 37.6859 -2.85701 3.97088
head 19.3588 -0.521752 0.611014
rclavicle 8.74653e-015 -2.5842e-015
rhumerus 41.2801 -2.94033 -73.2743
rradius 32.0634
rwrist 7.81384
rhand -61.3225 348.606
rfingers 7.12502
rthumb -33.4099 -38.3064
lclavicle 8.74653e-015 -2.5842e-015
lhumerus 30.1861 -21.8176 65.3407
lradius 33.341
lwrist 14.0449
lhand -49.9834 -609.418
lfingers 7.12502
lthumb -22.5731 -81.8819
rfemur -82.6852 8.139 14.6801
rtibia 103.904
rfoot 45.5903 -7.41481
rtoes 56.7141
lfemur -78.3542 -13.8804 -5.73364
ltibia 89.2184
lfoot -308.597 1.33096
ltoes 12.7613
907
root 11.0342 7.76746 22.2332 -104.285 -1.84993 176.516
lowerback 9.868 0.805334 -1.78784
upperback -2.34625 0.504062 -3.45559
thorax -8.02741 0.206135 -2.73667
lowerneck -28.1727 1.80612 2.7401
upperneck 37.5587 -2.78734 3.86582
head 19.2734 -0.504721 0.571575
rclavicle -1.19271e-014 3.06128e-014
rhumerus 41.2084 -2.83442 -73.1156
rradius 32.1562
rwrist 7.72752
rhand -61.2783 348.806
rfingers 7.12502
rthumb -33.3679 -38.1163
lclavicle -1.19271e-014 3.06128e-014
lhumerus 30.0619 -21.8542 65.4565
lradius 33.36
lwrist 14.1499
lhand -49.9098 -609.269
lfingers 7.12502
lthumb -22.5025 -82.0223
rfemur -82.4923 7.87275 14.5629
rtibia 103.849
rfoot 45.5433 -7.33379
rtoes 56.597
lfemur -78.6364 -13.943 -5.91454
ltibia 89.6832
lfoot -309.207 0.725429
ltoes 10.6532
908
root 11.0239 7.77329 22.2243 -104.332 -1.75489 176.331
lowerback 9.98578 0.768769 -1.93132
upperback -2.3366 0.435136 -3.405
thorax -8.08906 0.180383 -2.59266
lowerneck -28.1628 1.79912 2.77209
upperneck 37.4349 -2.73116 3.77589
head 19.1913 -0.489863 0.535196
rclavicle -3.18055e-015 -3.85642e-014
rhumerus 41.1551 -2.74792 -72.9731
rradius 32.218
rwrist 7.64504
rhand -61.2311 349.044
rfingers 7.12502
rthumb -33.3231 -37.8874
lclavicle -3.18055e-015 -3.85642e-014
lhumerus 29.9253 -21.8862 65.5819
lradius 33.3863
lwrist 14.2229
lhand -49.839 -609.115
lfingers 7.12502
lthumb -22.4345 -82.1677
rfemur -82.3426 7.57588 14.4241
rtibia 103.806
rfoot 45.4735 -7.21653
rtoes 56.4587
lfemur -78.9499 -13.9618 -6.17381
ltibia 90.1871
lfoot -310.011 -0.087196
ltoes 8.43708
909
root 11.0142 7.77827 22.2148 -104.336 -1.65845 176.127
lowerback 10.0446 0.723583 -2.06656
upperback -2.33512 0.355315 -3.37256
thorax -8.12518 0.148176 -2.46946
lowerneck -28.1537 1.7952 2.81333
upperneck 37.3175 -2.68859 3.7061
head 19.1149 -0.476159 0.503819
rclavicle -5.56597e-015 4.92986e-014
rhumerus 41.122 -2.68088 -72.8626
rradius 32.246
rwrist 7.5719
rhand -61.1781 349.338
rfingers 7.12502
rthumb -33.2726 -37.6047
lclavicle -5.56597e-015 4.92986e-014
lhumerus 29.7816 -21.9137 65.7016
lradius 33.4197
lwrist 14.2709
lhand -49.7721 -608.96
lfingers 7.12502
lthumb -22.3703 -82.3156
rfemur -82.2372 7.25402 14.2707
rtibia 103.772
rfoot 45.3806 -7.05944
rtoes 56.2968
lfemur -79.3072 -13.934 -6.48622
ltibia 90.7121
lfoot -310.948 -0.985208
ltoes 6.16201
910
root 11.0049 7.78253 22.2047 -104.294 -1.56728 175.911
lowerback 10.0402 0.668235 -2.17832
upperback -2.34156 0.265027 -3.35899
thorax -8.13287 0.108931 -2.37655
lowerneck -28.1456 1.79682 2.86735
upperneck 37.2076 -2.65833 3.65723
head 19.0448 -0.46253 0.477451
rclavicle -1.27222e-014 2.08724e-014
rhumerus 41.1062 -2.63364 -72.8005
rradius 32.2427
rwrist 7.51792
rhand -61.1164 349.697
rfingers 7.12502
rthumb -33.214 -37.2577
lclavicle -1.27222e-014 2.08724e-014
lhumerus 29.6321 -21.9341 65.8078
lradius 33.4609
lwrist 14.2958
lhand -49.71 -608.805
lfingers 7.12502
lthumb -22.3107 -82.4631
rfemur -82.1759 6.91395 14.1118
rtibia 103.742
rfoot 45.2639 -6.86225
rtoes 56.1109
lfemur -79.7164 -13.8595 -6.82331
ltibia 91.2406
lfoot -311.952 -1.8664
ltoes 3.90268
911
root 10.9954 7.78614 22.194 -104.209 -1.48784 175.692
lowerback 9.97298 0.602652 -2.25441
upperback -2.35573 0.166274 -3.36266
thorax -8.11222 0.0630758 -2.31969
lowerneck -28.1366 1.80548 2.93639
upperneck 37.1056 -2.63865 3.62785
head 18.9807 -0.448294 0.455349
rclavicle -1.03368e-014 4.75095e-014
rhumerus 41.0995 -2.60679 -72.8019
rradius 32.2157
rwrist 7.4975
rhand -61.0453 350.122
rfingers 7.12502
rthumb -33.1464 -36.8469
lclavicle -1.03368e-014 4.75095e-014
lhumerus 29.4723 -21.9419 65.9033
lradius 33.5108
lwrist 14.2923
lhand -49.6532 -608.656
lfingers 7.12502
lthumb -22.2562 -82.6058
rfemur -82.1554 6.56435 13.9573
rtibia 103.711
rfoot 45.1225 -6.62616
rtoes 55.9011
lfemur -80.1792 -13.7401 -7.15785
ltibia 91.7586
lfoot -312.947 -2.65836
ltoes 1.72858
912
root 10.9857 7.78918 22.1828 -104.088 -1.42619 175.481
lowerback 9.85113 0.528173 -2.28745
upperback -2.37684 0.062236 -3.37865
thorax -8.06715 0.0120095 -2.29872
lowerneck -28.1239 1.82194 3.02019
upperneck 37.0128 -2.62641 3.61386
head 18.922 -0.432998 0.436276
rclavicle 0 -4.96962e-015
rhumerus 41.0896 -2.60063 -72.8831
rradius 32.1761
rwrist 7.53256
rhand -60.968 350.597
rfingers 7.12502
rthumb -33.0729 -36.3874
lclavicle 0 -4.96962e-015
lhumerus 29.2916 -21.926 66.0044
lradius 33.5687
lwrist 14.2465
lhand -49.6021 -608.514
lfingers 7.12502
lthumb -22.2071 -82.7419
rfemur -82.1654 6.21626 13.818
rtibia 103.676
rfoot 44.9547 -6.35673
rtoes 55.6705
lfemur -80.6881 -13.5797 -7.4677
ltibia 92.2579
lfoot -313.857 -3.32281
ltoes -0.320667
913
root 10.9755 7.79181 22.1712 -103.946 -1.38662 175.287
lowerback 9.69041 0.448438 -2.27225
upperback -2.40253 -0.0417349 -3.40367
thorax -8.00437 -0.0417126 -2.31439
lowerneck -28.1062 1.84492 3.11834
upperneck 36.9306 -2.62267 3.61306
head 18.8693 -0.417503 0.418965
rclavicle -1.98785e-014 1.82882e-014
rhumerus 41.0674 -2.61559 -73.0428
rradius 32.1328
rwrist 7.62918
rhand -60.8895 351.094
rfingers 7.12502
rthumb -32.9982 -35.9067
lclavicle -1.98785e-014 1.82882e-014
lhumerus 29.0856 -21.8823 66.1238
lradius 33.6319
lwrist 14.148
lhand -49.5561 -608.382
lfingers 7.12502
lthumb -22.163 -82.8688
rfemur -82.188 5.8815 13.7032
rtibia 103.63
rfoot 44.7594 -6.06097
rtoes 55.4229
lfemur -81.2275 -13.384 -7.73847
ltibia 92.7372
lfoot -314.611 -3.84545
ltoes -2.24567
914
root 10.9648 7.7943 22.1588 -103.801 -1.37261 175.118
lowerback 9.51234 0.367656 -2.20761
upperback -2.42913 -0.140177 -3.43276
thorax -7.93252 -0.0951649 -2.36339
lowerneck -28.0845 1.87209 3.22547
upperneck 36.8612 -2.62846 3.62517
head 18.8239 -0.403034 0.403966
rclavicle -9.54166e-015 7.95139e-015
rhumerus 41.0276 -2.64834 -73.2696
rradius 32.0927
rwrist 7.78634
rhand -60.8165 351.573
rfingers 7.12502
rthumb -32.9288 -35.4426
lclavicle -9.54166e-015 7.95139e-015
lhumerus 28.8562 -21.809 66.2689
lradius 33.6945
lwrist 13.9954
lhand -49.5146 -608.26
lfingers 7.12502
lthumb -22.1231 -82.9861
rfemur -82.199 5.57279 13.6215
rtibia 103.566
rfoot 44.5369 -5.74914
rtoes 55.1649
lfemur -81.7753 -13.157 -7.96432
ltibia 93.2012
lfoot -315.158 -4.22791
ltoes -4.07135
915
root 10.9534 7.79693 22.1455 -103.672 -1.3853 174.98
lowerback 9.33858 0.289306 -2.09766
upperback -2.4528 -0.229189 -3.4596
thorax -7.86007 -0.145851 -2.43759
lowerneck -28.0616 1.90107 3.33118
upperneck 36.8078 -2.64334 3.65189
head 18.7885 -0.390602 0.394022
rclavicle -6.36111e-015 -7.87187e-014
rhumerus 40.969 -2.69041 -73.5453
rradius 32.061
rwrist 7.99744
rhand -60.7558 352.001
rfingers 7.12502
rthumb -32.8711 -35.0264
lclavicle -6.36111e-015 -7.87187e-014
lhumerus 28.612 -21.7066 66.4401
lradius 33.7473
lwrist 13.7979
lhand -49.4761 -608.145
lfingers 7.12502
lthumb -22.0862 -83.0962
rfemur -82.176 5.30079 13.5784
rtibia 103.478
rfoot 44.2898 -5.43384
rtoes 54.9048
lfemur -82.3107 -12.9005 -8.14872
ltibia 93.6596
lfoot -315.487 -4.48289
ltoes -5.8323
916
root 10.9416 7.79993 22.1311 -103.573 -1.42449 174.878
lowerback 9.18962 0.21723 -1.94457
upperback -2.4694 -0.304543 -3.48308
thorax -7.7945 -0.19142 -2.53534
lowerneck -28.0418 1.92805 3.42858
upperneck 36.7711 -2.67204 3.69812
head 18.7647 -0.382173 0.391573
rclavicle -2.54444e-014 5.4467e-014
rhumerus 40.8988 -2.73436 -73.8337
rradius 32.0359
rwrist 8.23199
rhand -60.7111 352.353
rfingers 7.12502
rthumb -32.8286 -34.6833
lclavicle -2.54444e-014 5.4467e-014
lhumerus 28.3725 -21.5886 66.6215
lradius 33.781
lwrist 13.5765
lhand -49.4395 -608.035
lfingers 7.12502
lthumb -22.051 -83.2024
rfemur -82.0993 5.07293 13.5765
rtibia 103.364
rfoot 44.0231 -5.128
rtoes 54.6516
lfemur -82.8158 -12.6138 -8.30209
ltibia 94.1239
lfoot -315.622 -4.62951
ltoes -7.56283
917
root 10.9294 7.80333 22.1159 -103.515 -1.48721 174.812
lowerback 9.07826 0.153576 -1.7554
upperback -2.47594 -0.364418 -3.50119
thorax -7.7399 -0.230473 -2.6508
lowerneck -28.03 1.95053 3.50939
upperneck 36.7516 -2.71575 3.76758
head 18.7541 -0.378667 0.399585
rclavicle 2.14687e-014 2.72335e-014
rhumerus 40.8277 -2.76933 -74.1002
rradius 32.0143
rwrist 8.45896
rhand -60.6827 352.622
rfingers 7.12502
rthumb -32.8015 -34.4198
lclavicle 2.14687e-014 2.72335e-014
lhumerus 28.1584 -21.4685 66.7924
lradius 33.7882
lwrist 13.3592
lhand -49.4039 -607.928
lfingers 7.12502
lthumb -22.0168 -83.3056
rfemur -81.9613 4.89294 13.6143
rtibia 103.224
rfoot 43.7434 -4.84142
rtoes 54.4119
lfemur -83.276 -12.2935 -8.44144
ltibia 94.6018
lfoot -315.589 -4.68415
ltoes -9.2596
